<?xml version="1.0" encoding="UTF-8"?><svg id="Layer_1" xmlns="http://www.w3.org/2000/svg" viewBox="0 0 55 38.39"><defs><style>.cls-1{fill:#dbdbdb;}</style></defs><path class="cls-1" d="M42.35,38.39c3.38,0,6.56-1.32,8.94-3.7,2.39-2.39,3.7-5.57,3.7-8.94,0-1.74-.29-3.38-.86-4.88-.59-1.55-1.46-2.92-2.59-4.06-2.41-2.43-5.87-3.71-10.03-3.71-.03,0-.06,0-.07,0-.13-.34,0-1.81,1.53-4.26,1.59-2.57,4-5.04,6.61-6.77,.41-.27,.59-.78,.45-1.25-.14-.47-.58-.79-1.07-.79C46.81,0,42.03,1.46,37.65,5.46c-3.63,3.33-7.95,9.4-7.95,19.45,0,3.8,1.31,7.25,3.69,9.72,2.33,2.42,5.51,3.75,8.96,3.75h0Z"/><path class="cls-1" d="M3.69,34.63c2.33,2.42,5.51,3.75,8.96,3.75s6.56-1.32,8.94-3.7c2.39-2.39,3.7-5.57,3.7-8.94,0-1.74-.29-3.38-.86-4.88-.59-1.55-1.46-2.92-2.59-4.06-2.41-2.43-5.87-3.71-10.03-3.71-.03,0-.06,0-.07,0-.13-.34,0-1.81,1.53-4.26,1.59-2.57,4-5.04,6.61-6.77,.41-.27,.59-.78,.45-1.25-.14-.47-.58-.79-1.07-.79-2.15,0-6.94,1.45-11.31,5.46C4.32,8.79,0,14.86,0,24.91c0,3.8,1.31,7.25,3.69,9.72h0Z"/></svg>